<svg xmlns="http://www.w3.org/2000/svg" width="1024" height="1024" viewBox="0 0 1024 1024">
<g>
<path d="M 430.50 827.00 L 340.51 826.50 L 339.16 822.50 C336.06,813.26 340.23,798.49 348.30,790.17 C353.54,784.76 358.54,782.11 367.50,779.98 L 374.50 778.31 L 374.84 774.41 C375.76,763.77 371.06,732.21 365.92,714.58 C361.06,697.90 352.46,675.96 341.00,651.00 C323.10,612.01 318.06,594.99 315.89,566.20 C314.02,541.34 317.24,514.79 325.41,487.89 C329.85,473.26 333.96,462.59 343.34,441.33 C347.51,431.89 351.20,423.06 351.54,421.71 C352.03,419.75 351.08,417.90 346.87,412.62 C343.97,408.98 341.07,406.00 340.44,406.00 C339.80,406.00 326.28,409.15 310.39,413.01 C294.50,416.86 280.52,420.24 279.32,420.51 C277.24,420.98 274.00,418.84 274.00,417.00 C274.00,415.14 277.20,413.12 281.74,412.12 C284.36,411.54 297.52,408.57 311.00,405.53 C324.48,402.49 336.90,400.00 338.61,400.00 C342.58,400.00 374.26,394.09 375.21,393.17 C375.60,392.79 375.60,391.99 375.21,391.38 C374.71,390.61 368.94,391.32 355.73,393.80 C334.37,397.81 335.88,398.13 332.55,388.87 C330.43,382.98 336.34,383.95 274.50,379.36 C267.13,378.81 262.00,377.09 262.00,375.17 C262.00,374.74 262.59,373.57 263.32,372.58 C264.58,370.85 265.42,370.85 283.57,372.44 C306.87,374.49 322.60,376.19 348.50,379.46 C372.13,382.44 374.00,382.52 374.00,380.50 C374.00,379.67 373.66,378.99 373.25,378.97 C372.84,378.95 362.66,377.66 350.64,376.10 C335.84,374.18 328.51,372.82 327.94,371.90 C327.48,371.15 326.83,368.73 326.50,366.52 C325.01,356.58 326.98,358.09 303.70,348.99 C277.27,338.64 276.00,338.07 276.00,336.47 C276.00,333.71 277.30,332.00 279.41,332.00 C282.35,332.00 315.77,345.54 361.36,365.21 C371.37,369.52 375.52,370.88 376.31,370.09 C377.00,369.40 377.05,368.66 376.45,368.09 C375.93,367.59 364.53,362.55 351.12,356.89 L 326.75 346.59 L 327.32 340.55 C328.44,328.69 334.46,313.58 343.13,300.81 C347.21,294.79 347.27,294.57 348.10,282.74 C349.70,259.67 354.11,239.03 361.57,219.64 C365.41,209.67 372.46,197.00 374.16,197.00 C376.37,197.00 385.03,204.29 394.26,213.90 C404.00,224.05 414.45,237.93 421.88,250.60 L 426.05 257.70 L 440.77 258.27 C462.21,259.11 483.08,263.95 498.22,271.61 C500.81,272.93 503.68,274.00 504.58,274.00 C505.49,274.00 509.44,271.59 513.37,268.64 C524.71,260.11 532.64,255.25 545.50,248.94 C557.99,242.82 575.50,237.10 577.05,238.65 C578.99,240.59 580.03,257.93 579.00,271.44 C577.39,292.65 573.32,311.31 566.29,329.71 L 562.77 338.92 L 564.40 347.21 C566.85,359.59 566.56,380.00 563.87,385.19 C562.79,387.27 560.21,387.60 534.00,389.02 C522.72,389.64 512.95,390.31 512.27,390.53 C511.59,390.75 511.31,391.65 511.65,392.53 C512.17,393.89 513.55,394.04 520.88,393.54 C525.62,393.22 539.17,392.28 551.00,391.46 C579.15,389.50 612.89,388.02 614.58,388.67 C616.47,389.40 617.37,392.85 616.08,394.41 C614.87,395.87 598.82,396.94 575.76,397.10 L 562.01 397.20 L 558.76 403.85 C556.09,409.29 555.02,410.56 552.84,410.81 C551.38,410.98 541.56,409.02 531.03,406.45 C520.49,403.89 511.62,402.05 511.31,402.35 C509.31,404.36 513.59,406.00 532.14,410.33 C588.38,423.47 611.55,429.38 613.65,431.13 C615.41,432.59 615.36,434.50 613.51,436.35 C611.89,437.97 605.93,436.64 571.50,426.99 C563.25,424.68 554.74,422.31 552.58,421.73 C548.69,420.68 548.64,420.71 544.73,425.34 C542.19,428.35 539.99,430.00 538.54,430.00 C537.30,430.00 529.88,426.14 522.05,421.43 C509.43,413.82 505.00,412.08 505.00,414.74 C505.00,415.66 528.35,429.58 541.00,436.21 C550.15,441.00 586.97,464.12 589.54,466.68 C590.87,468.02 590.90,468.52 589.71,470.31 C588.95,471.45 587.88,472.54 587.33,472.72 C586.78,472.91 576.46,466.68 564.41,458.89 C552.36,451.10 540.22,443.24 537.42,441.44 L 532.35 438.16 L 525.23 443.11 C521.32,445.83 517.84,448.93 517.50,450.00 C516.68,452.58 518.54,465.56 520.59,471.64 C527.33,491.57 539.71,506.53 568.29,529.32 C597.79,552.83 613.05,568.38 626.87,589.00 C640.60,609.49 649.33,628.99 655.00,651.86 C660.21,672.85 661.43,684.06 661.44,711.00 C661.45,735.86 660.46,748.45 656.93,768.50 C655.86,774.55 654.70,781.25 654.35,783.38 L 653.70 787.27 L 659.60 786.55 C677.68,784.36 698.86,772.77 709.50,759.24 C722.75,742.40 728.53,721.72 725.98,700.32 C723.40,678.69 715.63,660.83 695.62,630.50 C670.38,592.23 661.77,576.87 655.55,559.00 C647.12,534.79 646.79,510.90 654.58,490.19 C663.74,465.86 686.15,446.97 712.27,441.58 C734.90,436.91 747.00,442.26 747.00,456.95 C747.00,462.46 746.04,465.08 742.63,468.85 C739.32,472.49 736.11,473.72 728.00,474.44 C718.41,475.29 712.70,476.70 706.71,479.68 C686.00,490.01 678.42,516.03 687.62,545.20 C691.98,559.03 699.13,572.22 715.97,597.50 C750.37,649.14 759.77,671.14 761.63,704.37 C762.76,724.54 757.94,747.07 748.87,764.00 C735.32,789.29 710.96,809.38 682.21,818.97 C664.93,824.74 655.52,826.13 631.00,826.58 C588.28,827.36 520.20,827.50 430.50,827.00 ZM 451.00 389.21 C462.78,380.14 461.83,378.10 444.16,374.52 C434.96,372.66 431.00,373.06 431.00,375.84 C431.00,378.18 441.03,395.00 442.43,394.99 C443.02,394.99 446.88,392.39 451.00,389.21 ZM 497.00 368.63 C497.00,368.42 496.33,366.34 495.50,364.00 C493.60,358.60 493.61,344.82 495.53,339.50 C497.46,334.14 497.42,334.02 494.19,334.95 C484.93,337.60 476.00,347.16 476.00,354.42 C476.00,357.91 481.11,363.38 487.24,366.43 C491.66,368.64 497.00,369.84 497.00,368.63 ZM 515.64 365.45 C521.74,361.91 528.00,353.58 528.00,349.01 C528.00,346.77 519.26,338.59 514.50,336.36 C507.58,333.12 505.59,333.22 506.39,336.75 C509.16,348.89 508.92,357.46 505.58,365.46 L 504.01 369.22 L 507.75 368.54 C509.81,368.16 513.37,366.77 515.64,365.45 ZM 420.25 348.22 C424.89,346.16 425.00,346.01 425.00,341.67 C425.00,334.36 422.08,327.10 417.09,322.04 L 412.63 317.50 L 411.79 323.77 C410.64,332.44 407.40,340.55 403.30,345.09 C401.32,347.28 400.14,349.42 400.55,350.09 C401.68,351.91 414.71,350.68 420.25,348.22 ZM 393.00 340.48 C393.00,333.44 395.97,324.98 400.45,319.23 C402.38,316.76 403.68,314.29 403.34,313.75 C402.99,313.17 399.53,312.94 395.05,313.20 C389.39,313.53 386.20,314.29 382.93,316.09 C378.75,318.39 378.48,318.80 378.19,323.30 C377.81,329.27 381.20,337.13 386.40,342.34 C391.66,347.60 393.00,347.22 393.00,340.48 Z" fill="rgba(0,0,0,1)"/>
</g>
</svg>